<svg width="19" height="30" viewBox="0 0 19 30" fill="none" xmlns="http://www.w3.org/2000/svg">
<path fill-rule="evenodd" clip-rule="evenodd" d="M9.18333 29.999H4.73496L4.75 17.499L2.38846 28.4003L0 27.499L3.15163 7.49901L6.31829 5.34026C5.61529 4.16026 5.24558 2.41901 6.31829 1.28776C6.31829 1.28776 7.45196 0.015264 9.5 0.00401399C11.548 -0.00848601 12.6516 1.25026 12.6516 1.25026C13.7014 2.30401 13.361 4.33526 12.6516 5.33776L15.8183 7.49901L19 27.499L16.625 28.4115L14.25 17.499L14.235 29.999H9.81667V3.12901C10.978 3.06651 11.875 2.67151 11.875 2.19401C11.875 1.67276 10.811 1.25026 9.5 1.25026C8.189 1.25026 7.125 1.67276 7.125 2.19401C7.125 2.67151 8.02196 3.06651 9.18333 3.12901V29.999V29.999ZM11.9898 21.2228L11.4792 21.809L13.3435 25.8515L13.8542 25.2653L11.9898 21.2228ZM7.01021 21.2228L7.52083 21.809L5.65646 25.8515L5.14583 25.2653L7.01021 21.2228Z" fill="#6D4515"/>
</svg>
