<svg width="26" height="28" viewBox="0 0 26 28" fill="none" xmlns="http://www.w3.org/2000/svg">
<path d="M19.9422 9.80003H14.0056L19.5089 0.466675H12.5756L6.07556 14.4667H11.1889L6.07556 27.5334L19.9422 9.80003Z" fill="#FFDD09"/>
<path d="M14.3089 0.466675H12.5756L6.07556 14.4667H7.80888L14.3089 0.466675Z" fill="white"/>
<path d="M17.7705 9.8L7.37052 23.1L5.63721 27.5333L19.5038 9.8H17.7705Z" fill="#FD9808"/>
<path d="M6.07556 28C5.98887 28 5.90224 28 5.85887 27.9534C5.68556 27.8134 5.59887 27.58 5.68556 27.3934L10.5389 14.9334H6.07556C5.94556 14.9334 5.77224 14.84 5.68556 14.7C5.59887 14.56 5.59887 14.3734 5.68556 14.2334L12.1855 0.233352C12.2722 0.0933516 12.4022 0 12.5755 0H19.5089C19.6822 0 19.8122 0.0933516 19.8989 0.233352C19.9855 0.373352 19.9855 0.56 19.8989 0.7L14.8289 9.33335H19.9422C20.1155 9.33335 20.2455 9.4267 20.3322 9.61335C20.4189 9.8 20.3755 9.9867 20.2889 10.1267L6.42219 27.86C6.33556 27.9534 6.20556 28 6.07556 28ZM6.76887 14H11.1889C11.3189 14 11.4489 14.0934 11.5355 14.1866C11.6222 14.3266 11.6222 14.4666 11.5789 14.6066L7.59219 24.8733L19.0322 10.2666H14.0055C13.8322 10.2666 13.7022 10.1733 13.6155 10.0333C13.5288 9.8933 13.5288 9.70665 13.6155 9.56665L18.7289 0.933352H12.8355L6.76887 14Z" fill="black"/>
</svg>
