<svg width="25" height="23" viewBox="0 0 25 23" fill="none" xmlns="http://www.w3.org/2000/svg">
<path d="M19.8276 6.74138C19.8276 3.01821 16.5469 0 12.5 0C8.45309 0 5.17242 3.01821 5.17242 6.74138V8.32757H6.89655V6.74138C6.89655 3.89423 9.40529 1.58619 12.5 1.58619C15.5947 1.58619 18.1035 3.89423 18.1035 6.74138V8.32757H19.8276V6.74138Z" fill="#7D4641"/>
<path d="M22.3849 17.5355L20.7998 7.81335C20.7365 7.42514 20.374 7.13791 19.9473 7.13791H18.511C18.2932 7.13791 18.1062 7.2875 18.0851 7.48704C17.8944 9.29429 16.2386 10.7069 14.2241 10.7069H10.7759C8.76144 10.7069 7.10563 9.29429 6.91491 7.48704C6.89387 7.28754 6.7069 7.13791 6.48898 7.13791H5.05276C4.62605 7.13791 4.26355 7.42509 4.20022 7.81335L2.61511 17.5355C2.14602 20.4125 4.56809 23 7.73029 23H17.2697C20.4319 23 22.854 20.4125 22.3849 17.5355Z" fill="#9B5A50"/>
<path d="M20.6082 11.9838L19.8276 7.13795V6.74138C19.8276 3.01821 16.5469 0 12.5 0C8.45307 0 5.17241 3.01821 5.17241 6.74138V7.13795L4.39145 11.9865C4.09511 13.804 4.96103 15.6577 6.72856 16.707C7.58095 17.2131 8.59072 17.4483 9.60517 17.4483H10.0641C10.2452 17.4483 10.4067 17.5528 10.4668 17.71C10.7618 18.4815 11.5606 19.0345 12.5 19.0345C13.4394 19.0345 14.2381 18.4815 14.5332 17.71C14.5933 17.5529 14.7548 17.4483 14.9359 17.4483H15.3639C16.5106 17.4483 17.6491 17.1478 18.5687 16.5174C20.1351 15.4436 20.8879 13.6997 20.6082 11.9838ZM18.9655 7.13795H18.511C18.2932 7.13795 18.1062 7.28754 18.0851 7.48709C17.8944 9.29434 16.2386 10.707 14.2241 10.707H10.7759C8.76142 10.707 7.10561 9.29434 6.91489 7.48709C6.89384 7.28759 6.70688 7.13795 6.48891 7.13795H6.03452V6.74138C6.03452 3.45625 8.92924 0.793096 12.5 0.793096C16.0708 0.793096 18.9656 3.45625 18.9656 6.74138V7.13795H18.9655Z" fill="#915046"/>
<path d="M9.50709 16.6552H15.493C18.1283 16.6552 20.1466 14.4989 19.7557 12.1014L18.9655 7.13795H18.511C18.2932 7.13795 18.1062 7.28754 18.0851 7.48708C17.8944 9.29434 16.2386 10.7069 14.2241 10.7069H10.7759C8.76143 10.7069 7.10562 9.29434 6.9149 7.48708C6.89385 7.28759 6.70689 7.13795 6.48892 7.13795H6.03453L5.24444 12.1014C4.85352 14.4989 6.87183 16.6552 9.50709 16.6552Z" fill="#AA6455"/>
<path d="M12.5 18.2414C11.7859 18.2414 11.2069 17.7087 11.2069 17.0517V16.2586C11.2069 16.0396 11.3999 15.862 11.638 15.862H13.3621C13.6001 15.862 13.7931 16.0396 13.7931 16.2586V17.0517C13.7931 17.7087 13.2142 18.2414 12.5 18.2414Z" fill="#F5DCB4"/>
<path d="M12.069 15.862V17.0517C12.069 17.2707 12.262 17.4483 12.5 17.4483C12.7381 17.4483 12.9311 17.2707 12.9311 17.0517V15.862H12.069Z" fill="#EBC9A0"/>
</svg>
