<svg width="25" height="25" viewBox="0 0 25 25" fill="none" xmlns="http://www.w3.org/2000/svg">
<path d="M24.6134 18.9433V21.5206C24.6134 21.8041 24.3814 22.0361 24.0979 22.0361H0.902061C0.618555 22.0361 0.386597 21.8041 0.386597 21.5206V18.9433H2.19072H22.8093H24.6134Z" fill="#D2D6D8"/>
<path d="M22.8093 2.96392H2.19073V18.9433H22.8093V2.96392Z" fill="#E7ECED"/>
<path d="M21.2629 4.51031H3.73712V16.8814H21.2629V4.51031Z" fill="#31C0D8"/>
<path d="M23.1959 18.5567V2.57732H1.80412V18.5567H0V21.5206C0 22.018 0.404691 22.4227 0.902062 22.4227H24.0979C24.5953 22.4227 25 22.018 25 21.5206V18.5567H23.1959ZM2.57732 3.35051H22.4227V18.5567H2.57732V3.35051ZM24.2268 21.5206C24.2268 21.5905 24.1678 21.6495 24.0979 21.6495H0.902062C0.832216 21.6495 0.773196 21.5905 0.773196 21.5206V19.3299H24.2268V21.5206Z" fill="#231F20"/>
<path d="M3.35052 17.268H21.6495V4.12371H3.35052V17.268ZM4.12372 4.8969H20.8763V16.4948H4.12372V4.8969Z" fill="#231F20"/>
<path d="M14.8196 20.1031H10.1804V20.8763H14.8196V20.1031Z" fill="#231F20"/>
</svg>
