<svg width="25" height="30" viewBox="0 0 25 30" fill="none" xmlns="http://www.w3.org/2000/svg">
<g clip-path="url(#clip0)">
<path d="M11.2104 10.9234C10.7609 9.80984 10.3554 7.75522 8.82336 7.75522C7.29141 7.75522 6.21008 9.26922 9.04873 12.1348L11.2104 10.9234Z" fill="#0071CE"/>
<path d="M24.0196 19.6349C24.0196 17.3361 22.4666 15.4726 20.5509 15.4726C18.685 15.4726 14.3984 13.941 12.1422 11.2337C9.88602 8.52625 8.64515 11.516 7.17869 11.516C5.71218 11.516 4.47135 10.1563 2.55356 10.1563C0.635829 10.1563 0.692252 13.4788 0.692252 16.1185C0.692252 18.7582 0.692252 19.6349 0.692252 19.6349H24.0196Z" fill="#454F58"/>
<path d="M12.1421 11.2337C9.88594 8.52625 8.64507 11.516 7.17861 11.516C5.71209 11.516 4.47127 10.1563 2.55348 10.1563C1.06041 10.1563 0.764037 12.1704 0.705994 14.308C2.14081 14.5522 5.2836 16.0362 6.38096 19.6349H13.1302C12.3372 15.796 14.0543 14.9226 15.4966 15.6984C16.655 16.3216 17.6949 15.5617 17.786 14.8879C15.8492 14.2105 13.5821 12.9616 12.1421 11.2337Z" fill="#C3C6C8"/>
<path d="M7.17868 11.516C5.71217 11.516 4.47135 10.1563 2.55356 10.1563C1.87567 10.1563 1.44508 10.5723 1.1709 11.2257C2.79248 11.6091 4.64866 13.5344 7.04883 13.4097C8.37059 13.341 10.161 11.2073 12.1142 11.2009C9.87581 8.55196 8.63899 11.516 7.17868 11.516Z" fill="#00B3E3"/>
<path d="M23.6009 19.2657H21.668C18.0965 19.2657 7.31563 18.1693 4.05006 18.1693H1.17815C0.722557 18.1693 0.404968 18.6166 0.404968 19.1634V21.2507C0.404968 21.7974 0.722557 22.2448 1.17815 22.2448H23.6009C24.1477 22.2448 24.595 21.7079 24.595 21.0518V20.4586C24.5951 19.8025 24.1477 19.2657 23.6009 19.2657Z" fill="#E8E8E8"/>
<path d="M21.0369 19.2565C19.4541 19.2157 17.0008 19.0423 14.4105 18.8454C14.545 19.3553 14.6235 19.881 14.5068 20.207C14.3472 20.6527 13.6297 21.5411 13.0217 22.2448H20.7318C20.97 21.3643 21.1492 20.2925 21.0369 19.2565Z" fill="#0071CE"/>
<path d="M9.35416 15.6387H6.27653C6.05289 15.6387 5.87158 15.4211 5.87158 15.1527C5.87158 14.8843 6.05289 14.6668 6.27653 14.6668H9.35416C9.5778 14.6668 9.75911 14.8843 9.75911 15.1527C9.75911 15.4211 9.5778 15.6387 9.35416 15.6387Z" fill="#0071CE"/>
<path d="M10.1783 17.1188H7.10069C6.87705 17.1188 6.69574 16.9012 6.69574 16.6328C6.69574 16.3645 6.87705 16.1469 7.10069 16.1469H10.1783C10.402 16.1469 10.5833 16.3645 10.5833 16.6328C10.5833 16.9012 10.402 17.1188 10.1783 17.1188Z" fill="#0071CE"/>
<path d="M5.75983 20.693H3.02415C2.80051 20.693 2.6192 20.4754 2.6192 20.207C2.6192 19.9386 2.80051 19.7211 3.02415 19.7211H5.75983C5.98347 19.7211 6.16478 19.9386 6.16478 20.207C6.16478 20.4754 5.98347 20.693 5.75983 20.693Z" fill="#00B3E3"/>
<path d="M14.3268 14.8987C14.5504 14.8987 14.7318 14.6811 14.7318 14.4127C14.7318 14.1444 14.5504 13.9268 14.3268 13.9268C14.1031 13.9268 13.9218 14.1444 13.9218 14.4127C13.9218 14.6811 14.1032 14.8987 14.3268 14.8987ZM24.3963 19.0785C24.1659 16.7635 22.5183 14.9865 20.5509 14.9865C18.9076 14.9865 14.6698 13.5796 12.4285 10.89C12.0225 10.4029 11.6389 10.0813 11.2767 9.88306C10.8879 8.77745 10.2854 7.26915 8.82338 7.26922C7.94075 7.26922 7.25633 7.69633 6.99257 8.41176C6.80349 8.92472 6.76418 9.76423 7.52041 10.96C7.40351 11.004 7.28937 11.03 7.17858 11.03C6.57029 11.03 5.99483 10.7618 5.32844 10.4513C4.54289 10.0852 3.65243 9.67028 2.55351 9.67028C1.52531 9.67028 0.844618 10.4318 0.530215 11.9337C0.285571 13.1025 0.286435 14.588 0.287191 15.8985L0.287245 18.1854C0.107771 18.4445 0 18.7851 0 19.1633V21.2507C0 22.0806 0.517526 22.7307 1.17819 22.7307H23.6009C24.3724 22.7307 25 21.9776 25 21.0519V20.4586C25 19.8873 24.7607 19.3819 24.3963 19.0785ZM7.73325 8.80505C7.86149 8.45725 8.27918 8.24116 8.82343 8.24116C9.53474 8.2411 9.9392 8.79818 10.284 9.61683C9.54435 9.62091 8.91625 10.0647 8.39262 10.435C8.35002 10.4651 8.30769 10.4949 8.26557 10.5244C7.78266 9.81347 7.58887 9.19665 7.73325 8.80505ZM1.31576 12.1705C1.59928 10.816 2.1262 10.6423 2.55356 10.6423C3.50077 10.6423 4.28092 11.0058 5.03531 11.3574C5.74667 11.6889 6.41862 12.002 7.17863 12.002C7.77196 12.002 8.29651 11.6311 8.80378 11.2724C9.74839 10.6044 10.5643 10.0275 11.8558 11.5774C14.2868 14.4945 18.7406 15.9585 20.5509 15.9585C21.9873 15.9585 23.2076 17.1559 23.5305 18.7798H21.668C19.8554 18.7798 16.1323 18.4922 12.5321 18.2142C8.99772 17.9412 5.65937 17.6834 4.0501 17.6834H1.17819C1.15092 17.6834 1.12398 17.6849 1.0972 17.6871L1.09714 15.8981C1.09639 14.6439 1.09553 13.2225 1.31576 12.1705ZM12.8576 21.7589H1.17819C0.925176 21.7589 0.8099 21.4955 0.8099 21.2507V19.1633C0.8099 18.9186 0.925122 18.6551 1.17819 18.6551H4.0501C5.63329 18.6551 8.95901 18.912 12.48 19.184C13.019 19.2256 13.5606 19.2674 14.0983 19.3085C14.1961 19.7959 14.1477 19.9792 14.1348 20.0152C14.0979 20.1181 13.8975 20.5419 12.8576 21.7589ZM20.4316 21.7589H13.9974C14.7167 20.8504 14.8343 20.5234 14.8788 20.3989C14.9744 20.1322 14.993 19.7929 14.9352 19.3719C17.1284 19.5368 19.1945 19.6797 20.6633 19.7311C20.6825 20.3473 20.6051 21.0264 20.4316 21.7589ZM24.1901 21.0519C24.1901 21.4418 23.9257 21.7589 23.6009 21.7589H21.2704C21.4206 21.0482 21.4889 20.3763 21.4744 19.7506C21.5409 19.7512 21.6058 19.7516 21.668 19.7516H23.6009C23.9258 19.7516 24.1901 20.0688 24.1901 20.4586V21.0519ZM11.7429 12.9953C11.9665 12.9953 12.1478 12.7777 12.1478 12.5093C12.1478 12.241 11.9665 12.0234 11.7429 12.0234C11.5192 12.0234 11.3379 12.241 11.3379 12.5093C11.3379 12.7777 11.5192 12.9953 11.7429 12.9953ZM12.9677 14.0138C13.1914 14.0138 13.3727 13.7962 13.3727 13.5279C13.3727 13.2595 13.1914 13.0419 12.9677 13.0419C12.7441 13.0419 12.5628 13.2595 12.5628 13.5279C12.5628 13.7962 12.7441 14.0138 12.9677 14.0138Z" fill="black"/>
</g>
<defs>
<clipPath id="clip0">
<rect width="25" height="30" fill="white"/>
</clipPath>
</defs>
</svg>
