<svg width="32" height="32" viewBox="0 0 32 32" fill="none" xmlns="http://www.w3.org/2000/svg">
<g clip-path="url(#clip0)">
<path d="M13.3333 26C13.3333 27.1053 12.4373 28 11.3333 28C10.2293 28 9.33333 27.1053 9.33333 26C9.33333 24.896 10.2293 24 11.3333 24C12.4373 24 13.3333 24.896 13.3333 26ZM18 24C16.896 24 16 24.8947 16 26C16 27.1053 16.896 28 18 28C19.104 28 20 27.1053 20 26C20 24.896 19.104 24 18 24ZM3.916 17.3333L0 8H22.416L19.78 17.3333H3.916V17.3333ZM18.8933 10.6667H4.01067L5.68933 14.6667H17.764L18.8933 10.6667V10.6667ZM26.4067 4L21.8307 20H5.03467L6.15333 22.6667H23.8053L28.4373 6.66667H31.0093L32 4H26.4067Z" fill="black"/>
</g>
<defs>
<clipPath id="clip0">
<rect width="32" height="32" fill="white"/>
</clipPath>
</defs>
</svg>
